<svg width="28" height="24" viewBox="0 0 28 24" fill="none" xmlns="http://www.w3.org/2000/svg">
<path d="M0.666666 1.324C0.669106 0.973838 0.8092 0.63869 1.05668 0.390957C1.30417 0.143224 1.63917 0.00279287 1.98933 0H26.0107C26.7413 0 27.3333 0.593333 27.3333 1.324V22.676C27.3309 23.0262 27.1908 23.3613 26.9433 23.609C26.6958 23.8568 26.3608 23.9972 26.0107 24H1.98933C1.63842 23.9996 1.302 23.86 1.05399 23.6117C0.805975 23.3635 0.666666 23.0269 0.666666 22.676V1.324ZM14 16C12.9391 16 11.9217 15.5786 11.1716 14.8284C10.4214 14.0783 10 13.0609 10 12C10 10.9391 10.4214 9.92172 11.1716 9.17157C11.9217 8.42143 12.9391 8 14 8C15.0609 8 16.0783 8.42143 16.8284 9.17157C17.5786 9.92172 18 10.9391 18 12C18 13.0609 17.5786 14.0783 16.8284 14.8284C16.0783 15.5786 15.0609 16 14 16ZM14 18.6667C15.7681 18.6667 17.4638 17.9643 18.714 16.714C19.9643 15.4638 20.6667 13.7681 20.6667 12C20.6667 10.2319 19.9643 8.5362 18.714 7.28595C17.4638 6.03571 15.7681 5.33333 14 5.33333C12.2319 5.33333 10.5362 6.03571 9.28595 7.28595C8.03571 8.5362 7.33333 10.2319 7.33333 12C7.33333 13.7681 8.03571 15.4638 9.28595 16.714C10.5362 17.9643 12.2319 18.6667 14 18.6667ZM22 2.66667V5.33333H24.6667V2.66667H22Z" fill="#FF4773"/>
</svg>
