<svg width="40" height="40" viewBox="0 0 40 40" fill="none" xmlns="http://www.w3.org/2000/svg">
<g clip-path="url(#clip0)">
<path d="M39.9984 19.9991L35.4702 14.9717L36.1792 8.24111L29.5578 6.8394L26.1802 0.971924L19.9984 3.73475L19.1641 19.9991L19.9984 36.2634L26.1803 39.0263L29.5578 33.1589L36.1792 31.7571L35.4702 25.0265L39.9984 19.9991Z" fill="#FF99B1"/>
<path d="M13.8181 0.971924L10.4406 6.8394L3.81919 8.24119L4.52818 14.9717L0 19.9991L4.52818 25.0265L3.81919 31.7571L10.4406 33.1589L13.8182 39.0263L20 36.2634V3.73475L13.8181 0.971924Z" fill="#FF5C82"/>
<path d="M28.3829 15.6202L26.6322 14.0576L19.9984 21.4898L19.1641 23.3368L19.9984 25.0138L28.3829 15.6202Z" fill="#F7F0EB"/>
<path d="M13.0264 18.2319L11.3672 19.8912L18.3433 26.8674L19.998 25.0135V21.4895L18.2464 23.4519L13.0264 18.2319Z" fill="#FFFBF5"/>
</g>
<defs>
<clipPath id="clip0">
<rect width="40" height="40" fill="white"/>
</clipPath>
</defs>
</svg>
