<svg width="20" height="20" viewBox="0 0 20 20" fill="none" xmlns="http://www.w3.org/2000/svg">
<path d="M15.0002 6.66658H14.1668V4.99992C14.1668 2.69992 12.3002 0.833252 10.0002 0.833252C7.70016 0.833252 5.8335 2.69992 5.8335 4.99992V6.66658H5.00016C4.0835 6.66658 3.3335 7.41658 3.3335 8.33325V16.6666C3.3335 17.5833 4.0835 18.3333 5.00016 18.3333H15.0002C15.9168 18.3333 16.6668 17.5833 16.6668 16.6666V8.33325C16.6668 7.41658 15.9168 6.66658 15.0002 6.66658ZM10.0002 14.1666C9.0835 14.1666 8.3335 13.4166 8.3335 12.4999C8.3335 11.5833 9.0835 10.8333 10.0002 10.8333C10.9168 10.8333 11.6668 11.5833 11.6668 12.4999C11.6668 13.4166 10.9168 14.1666 10.0002 14.1666ZM12.5835 6.66658H7.41683V4.99992C7.41683 3.57492 8.57516 2.41659 10.0002 2.41659C11.4252 2.41659 12.5835 3.57492 12.5835 4.99992V6.66658Z" fill="#26180A" fill-opacity="0.6"/>
</svg>
