<svg width="19" height="18" viewBox="0 0 19 18" fill="currentColor" xmlns="http://www.w3.org/2000/svg">
<path d="M9.0013 17.3337C4.3988 17.3337 0.667969 13.6028 0.667969 9.00033C0.667969 4.39783 4.3988 0.666995 9.0013 0.666995C10.2952 0.666022 11.5715 0.966805 12.7287 1.54545C13.886 2.12409 14.8924 2.96464 15.668 4.00033H13.4096C12.4473 3.15179 11.2606 2.59896 9.9919 2.40816C8.72318 2.21736 7.42636 2.39671 6.25704 2.92467C5.08773 3.45264 4.09559 4.3068 3.39969 5.38465C2.70379 6.46251 2.33369 7.71827 2.3338 9.00125C2.33391 10.2842 2.70422 11.5399 3.4003 12.6177C4.09637 13.6954 5.08865 14.5494 6.25805 15.0772C7.42746 15.6049 8.72431 15.7841 9.993 15.5931C11.2617 15.4021 12.4483 14.849 13.4105 14.0003H15.6688C14.8932 15.0361 13.8866 15.8768 12.7292 16.4554C11.5718 17.034 10.2953 17.3348 9.0013 17.3337ZM14.8346 12.3337V9.83366H8.16797V8.167H14.8346V5.667L19.0013 9.00033L14.8346 12.3337Z" fill="currentColor"/>
</svg>
