<svg width="40" height="40" viewBox="0 0 40 40" fill="none" xmlns="http://www.w3.org/2000/svg">
<g clip-path="url(#clip0)">
<path d="M0.832534 30.001C0.372351 30.001 0 30.3745 0 30.8347V39.1684C0 39.6286 0.372351 40.0009 0.832534 40.0009H39.165C39.6263 40.0009 40 39.6286 40 39.1684V30.8347C40 30.3745 39.6264 30.001 39.165 30.001H0.832534Z" fill="#FFC2D0"/>
<path d="M38.9296 25.4874L35.7387 17.7885C35.5629 17.3636 35.0746 17.161 34.6498 17.338L-0.000976562 31.6909V36.0268L1.64456 40.0003H6.06838L38.4781 26.5762C38.9028 26.4005 39.1054 25.9134 38.9296 25.4874Z" fill="#FFADC0"/>
<path d="M-0.000976562 37.0037L2.99463 39.9993H7.01805L32.7017 14.317C33.0263 13.991 33.0263 13.4637 32.7017 13.1378L26.808 7.24543C26.4834 6.91949 25.956 6.91949 25.6301 7.24543L-0.000976562 32.8778V37.0037Z" fill="#FF99B1"/>
<path d="M-0.000976562 38.3409L4.00291 39.9998H8.33882L22.6919 5.3477C22.8689 4.92291 22.6675 4.4346 22.2414 4.25886L14.5424 1.07039C14.1176 0.893399 13.6293 1.09602 13.4536 1.52089L-0.000976562 34.006V38.3409Z" fill="#FF85A1"/>
<path d="M7.81429e-05 39.1674C7.81429e-05 39.6276 0.372429 39.9999 0.832612 39.9999H9.16514C9.62657 39.9999 10.0001 39.6276 10.0001 39.1674V0.833784C10.0001 0.373523 9.62657 0 9.16514 0H0.832534C0.372351 7.81429e-05 0 0.373601 0 0.833784V39.1674H7.81429e-05Z" fill="#FF5C82"/>
<path d="M-0.000976562 30.0005V39.1667C-0.000976562 39.627 0.371374 39.9993 0.831557 39.9993H9.16409C9.62552 39.9993 9.99904 39.6269 9.99904 39.1667V30.0005H-0.000976562Z" fill="#E6E9ED"/>
<path d="M4.99902 34.166C4.53759 34.166 4.16406 34.5384 4.16406 34.9985C4.16406 35.4587 4.53759 35.8323 4.99902 35.8323C5.45803 35.8323 5.83156 35.4588 5.83156 34.9985C5.83156 34.5383 5.45795 34.166 4.99902 34.166Z" fill="black"/>
<path d="M5.31635 35.8012C4.89149 35.9769 4.4045 35.7756 4.22743 35.3495C4.05161 34.9247 4.25431 34.4377 4.6791 34.2606C5.10388 34.0849 5.5922 34.2875 5.76794 34.7123C5.94368 35.1371 5.74122 35.6254 5.31635 35.8012Z" fill="black"/>
<path d="M5.59433 35.5321C5.26964 35.8567 4.74226 35.8567 4.41632 35.5321C4.09039 35.2061 4.09039 34.6788 4.41632 34.3529C4.74226 34.0282 5.26956 34.0282 5.59433 34.3529C5.92026 34.6787 5.92026 35.2061 5.59433 35.5321Z" fill="black"/>
<path d="M5.76893 35.3204C5.59311 35.7453 5.10487 35.9467 4.68008 35.7709C4.25522 35.5951 4.05259 35.1069 4.22842 34.682C4.40541 34.2571 4.89248 34.0546 5.31734 34.2315C5.7433 34.4073 5.94475 34.8943 5.76893 35.3204Z" fill="black"/>
<path d="M4.16406 34.9985C4.16406 35.4588 4.53759 35.8323 4.99902 35.8323C5.45803 35.8323 5.83156 35.4588 5.83156 34.9985C5.83156 34.5383 5.45803 34.166 4.99902 34.166C4.53759 34.166 4.16406 34.5384 4.16406 34.9985Z" fill="black"/>
<path d="M4.16406 34.9985C4.16406 35.4588 4.53759 35.8323 4.99902 35.8323C5.45803 35.8323 5.83156 35.4588 5.83156 34.9985C5.83156 34.5383 5.45803 34.166 4.99902 34.166C4.53759 34.166 4.16406 34.5384 4.16406 34.9985Z" fill="#434A54"/>
</g>
<defs>
<clipPath id="clip0">
<rect width="40" height="40" fill="white"/>
</clipPath>
</defs>
</svg>
