<svg width="40" height="40" viewBox="0 0 40 40" fill="none" xmlns="http://www.w3.org/2000/svg">
<g clip-path="url(#clip0)">
<path d="M20 40C31.0457 40 40 31.0457 40 20C40 8.9543 31.0457 0 20 0C8.9543 0 0 8.9543 0 20C0 31.0457 8.9543 40 20 40Z" fill="#FF99B1"/>
<path d="M27.6243 14.9173L25.3174 12.6104C24.9193 12.2124 24.3789 11.9568 23.779 11.9266L20.83 8.97754L7.27637 11.3555V28.3331L18.9142 39.9709C19.274 39.9902 19.6362 40.0006 20.0009 40.0006C30.1592 40.0006 38.5479 32.4271 39.8303 22.6186L31.3986 14.1868C31.3985 14.1868 31.3984 14.1867 31.3982 14.1865C30.9786 13.7669 30.3988 13.5074 29.7584 13.5074C28.8003 13.5074 27.978 14.0885 27.6243 14.9173Z" fill="#FF5C82"/>
<path d="M7.27637 28.3321L20.83 30.71V8.97656L7.27637 11.3545V28.3321Z" fill="#FF809E"/>
<path d="M21.8048 27.1089C22.3114 27.5183 22.9559 27.764 23.658 27.764C25.288 27.764 26.6095 26.4426 26.6095 24.8126V17.7163H21.8047L21.8048 27.1089Z" fill="#FF99B1"/>
<path d="M23.657 16.6138C24.9521 16.6138 26.002 15.564 26.002 14.2688C26.002 12.9738 24.9521 11.9238 23.657 11.9238C22.903 11.9238 22.2326 12.2801 21.8037 12.833V15.7047C22.2327 16.2577 22.903 16.6138 23.657 16.6138Z" fill="#FF99B1"/>
<path d="M32.6773 19.2383H27.5811V25.5066C28.1168 26.137 28.9151 26.5369 29.8062 26.5369C30.586 26.5369 31.3332 26.225 31.8815 25.6707C32.4297 25.1164 32.7334 24.3658 32.7249 23.5862L32.6773 19.2383Z" fill="#FF99B1"/>
<path d="M29.7598 18.1446C31.0408 18.1446 32.0792 17.1062 32.0792 15.8252C32.0792 14.5443 31.0408 13.5059 29.7598 13.5059C28.4788 13.5059 27.4404 14.5443 27.4404 15.8252C27.4404 17.1062 28.4788 18.1446 29.7598 18.1446Z" fill="#FF99B1"/>
<path d="M16.7249 17.4127H14.703V23.32H13.4828V17.4127H11.4609V16.1992H16.7248V17.4127H16.7249Z" fill="white"/>
</g>
<defs>
<clipPath id="clip0">
<rect width="40" height="40" fill="white"/>
</clipPath>
</defs>
</svg>
