<svg width="40" height="40" viewBox="0 0 40 40" fill="none" xmlns="http://www.w3.org/2000/svg">
<path d="M26.3603 23.3633L16.6361 13.6391C16.1786 13.1815 15.4365 13.1815 14.979 13.6391L0.687866 27.9302C-0.565102 29.1831 -0.0278367 31.3159 1.6638 31.8299L6.65365 33.3458L8.16951 38.3356V38.3355C8.68341 40.0277 10.8166 40.5641 12.0692 39.3116L26.3603 25.0204C26.8179 24.5628 26.8179 23.8209 26.3603 23.3633Z" fill="#FF3C7D"/>
<path d="M39.3116 27.9302L25.0205 13.6391C24.5629 13.1815 23.8209 13.1815 23.3633 13.6391L13.6391 23.3633C13.1815 23.8209 13.1815 24.5628 13.6391 25.0205L27.9302 39.3116C29.181 40.5624 31.3152 40.03 31.8299 38.3356L33.3458 33.3458L38.3356 31.8299C39.1309 31.5883 39.7261 30.9627 39.9279 30.1565C40.1297 29.3502 39.8993 28.518 39.3116 27.9302Z" fill="#FF5C82"/>
<path d="M19.9992 0.000488281L26.7029 16.9419L19.9992 32.8115C10.9535 32.8115 3.59375 25.4517 3.59375 16.406C3.59375 7.36041 10.9535 0.000488281 19.9992 0.000488281Z" fill="#FF5C82"/>
<path d="M36.4055 16.406C36.4055 25.4517 29.0456 32.8115 20 32.8115V0.000488281C29.0456 0.000488281 36.4055 7.36033 36.4055 16.406Z" fill="#FF99B1"/>
<path d="M19.9995 4.68848L24.5764 15.8598L19.9995 28.125C13.5381 28.125 8.28125 22.8682 8.28125 16.4068C8.28125 9.94535 13.538 4.68848 19.9995 4.68848Z" fill="#F7F9FA"/>
<path d="M31.7182 16.4063C31.7182 22.8677 26.4614 28.1245 20 28.1245V4.68799C26.4614 4.68799 31.7182 9.94478 31.7182 16.4063Z" fill="#FFC2D0"/>
<path d="M20.001 15.8753L21.5374 16.8485L20.001 18.7947L18.9496 19.5752C18.4739 19.9279 17.8064 19.8711 17.3965 19.4361L14.8927 16.7683C14.4497 16.2964 14.4731 15.5543 14.945 15.1113C15.4177 14.6684 16.159 14.6918 16.602 15.1645L18.391 17.0706L20.001 15.8753Z" fill="#FF5C82"/>
<path d="M24.9521 15.1187L20 18.7951V15.8758L23.5553 13.2369C24.0748 12.8517 24.8091 12.9603 25.1943 13.4798C25.5802 13.9993 25.4716 14.7337 24.9521 15.1187Z" fill="#FF5C82"/>
</svg>
