<svg width="17" height="19" viewBox="0 0 17 19" fill="currentColor" xmlns="http://www.w3.org/2000/svg">
<path d="M8.66536 11.8763V13.618C7.91113 13.3513 7.10393 13.2696 6.31153 13.3795C5.51914 13.4894 4.7647 13.7879 4.11156 14.2498C3.45842 14.7118 2.92565 15.3237 2.558 16.0342C2.19035 16.7447 1.99855 17.533 1.9987 18.333L0.332031 18.3322C0.331773 17.3146 0.564466 16.3104 1.01228 15.3967C1.46009 14.4829 2.11115 13.6838 2.91555 13.0605C3.71995 12.4373 4.65634 12.0065 5.65299 11.801C6.64964 11.5956 7.68008 11.6211 8.66536 11.8755V11.8763ZM6.9987 10.833C4.2362 10.833 1.9987 8.59551 1.9987 5.83301C1.9987 3.07051 4.2362 0.833008 6.9987 0.833008C9.7612 0.833008 11.9987 3.07051 11.9987 5.83301C11.9987 8.59551 9.7612 10.833 6.9987 10.833ZM6.9987 9.16634C8.84036 9.16634 10.332 7.67467 10.332 5.83301C10.332 3.99134 8.84036 2.49967 6.9987 2.49967C5.15703 2.49967 3.66536 3.99134 3.66536 5.83301C3.66536 7.67467 5.15703 9.16634 6.9987 9.16634ZM13.1804 14.1663H16.1687V15.833H13.1804L14.7045 17.3563L13.5262 18.5355L9.99036 14.9997L13.5262 11.4638L14.7045 12.643L13.1804 14.1663Z" fill="currentColor"/>
</svg>
