<svg width="16" height="19" viewBox="0 0 16 19" fill="currentColor" xmlns="http://www.w3.org/2000/svg">
<path d="M6.9987 11.6663V13.333C5.67262 13.333 4.40085 13.8598 3.46316 14.7975C2.52548 15.7352 1.9987 17.0069 1.9987 18.333H0.332031C0.332031 16.5649 1.03441 14.8692 2.28465 13.619C3.53489 12.3687 5.23059 11.6663 6.9987 11.6663ZM6.9987 10.833C4.2362 10.833 1.9987 8.59551 1.9987 5.83301C1.9987 3.07051 4.2362 0.833008 6.9987 0.833008C9.7612 0.833008 11.9987 3.07051 11.9987 5.83301C11.9987 8.59551 9.7612 10.833 6.9987 10.833ZM6.9987 9.16634C8.84036 9.16634 10.332 7.67467 10.332 5.83301C10.332 3.99134 8.84036 2.49967 6.9987 2.49967C5.15703 2.49967 3.66536 3.99134 3.66536 5.83301C3.66536 7.67467 5.15703 9.16634 6.9987 9.16634ZM9.1612 15.6763C9.05553 15.2317 9.05553 14.7685 9.1612 14.3238L8.33453 13.8463L9.16786 12.403L9.99453 12.8805C10.3263 12.5662 10.7274 12.3344 11.1654 12.2038V11.2497H12.832V12.2038C13.2754 12.3355 13.6754 12.5705 14.0029 12.8805L14.8295 12.403L15.6629 13.8463L14.8362 14.3238C14.9417 14.7682 14.9417 15.2311 14.8362 15.6755L15.6629 16.153L14.8295 17.5963L14.0029 17.1188C13.6711 17.4331 13.27 17.6649 12.832 17.7955V18.7497H11.1654V17.7955C10.7274 17.6649 10.3263 17.4331 9.99453 17.1188L9.16786 17.5963L8.33453 16.153L9.1612 15.6763ZM11.9987 16.2497C12.3302 16.2497 12.6482 16.118 12.8826 15.8836C13.117 15.6491 13.2487 15.3312 13.2487 14.9997C13.2487 14.6682 13.117 14.3502 12.8826 14.1158C12.6482 13.8814 12.3302 13.7497 11.9987 13.7497C11.6672 13.7497 11.3492 13.8814 11.1148 14.1158C10.8804 14.3502 10.7487 14.6682 10.7487 14.9997C10.7487 15.3312 10.8804 15.6491 11.1148 15.8836C11.3492 16.118 11.6672 16.2497 11.9987 16.2497Z" fill="currentColor"/>
</svg>
